# xmcd
#
# Track frame offsets:
#	183
#	4833
#	24700
#	44183
#	65978
#	90655
#	112313
#	134485
#	155838
#	177603
#	198035
#	215603
#
# Disc length: 3173 seconds
#
# Revision: 0
# Processed by: cddbd v1.5.1PL0 Copyright (c) Steve Scherf et al.
# Submitted via: EasyCDDAExtractor 8.2.1.1
#
DISCID=c00c630c
DTITLE=Leila Pinheiro - Coisa do Brasil
DYEAR=1993
DGENRE=Brasil
TTITLE0=Abertura
TTITLE1=Coisas do Brasil
TTITLE2=Vai passar
TTITLE3=Como una onda (zen surfismo)
TTITLE4=Ao poeta (primavera/deixa/marcha da quarta fiera de cinzas)
TTITLE5=Acalanto
TTITLE6=Monte castelo
TTITLE7=Gostava tanto de voce
TTITLE8=Quem te viu, quem te ve (tem mais samba/canta, canta minha gente)
TTITLE9=Por causa de voce, menina
TTITLE10=Sambadouro
TTITLE11=Chorar de mal amor
EXTD=
EXTT0=
EXTT1=
EXTT2=
EXTT3=
EXTT4=
EXTT5=
EXTT6=
EXTT7=
EXTT8=
EXTT9=
EXTT10=
EXTT11=
PLAYORDER=
